<svg width="16" height="16" viewBox="0 0 16 16" xmlns="http://www.w3.org/2000/svg">
  
  <g transform="translate(1 1) scale(0.875)">
    
    <!-- TEČNOST -->
    <path
      d="M4.6 10.2H11.4L12.7 13.1C12.85 13.4 12.63 13.75 12.3 13.75H3.7C3.37 13.75 3.15 13.4 3.3 13.1L4.6 10.2Z"
      fill="#6d8086"
    />

    <!-- OUTLINE BEAKERA -->
    <path
      d="M12 0.998993C12.276 0.998993 12.5 1.22299 12.5 1.49899C12.5 1.77499 12.276 1.99899 12 1.99899H11.004V6.68299C11.004 7.26299 11.148 7.83299 11.423 8.34299L13.819 12.789C14.358 13.788 13.634 15.001 12.499 15.001H3.50101C2.36501 15.001 1.64301 13.788 2.18101 12.789L4.57501 8.34499C4.85001 7.83499 4.99401 7.26399 4.99401 6.68499V1.99899H4.00001C3.72401 1.99899 3.50001 1.77499 3.50001 1.49899C3.50001 1.22299 3.72401 0.998993 4.00001 0.998993H12Z"
      fill="none"
      stroke="#6d8086"
      stroke-width="1"
      stroke-linejoin="round"
    />

  </g>
</svg>